<?xml version="1.0" encoding="iso-8859-1"?>
<!-- Generator: Adobe Illustrator 19.0.0, SVG Export Plug-In . SVG Version: 6.00 Build 0)  -->
<svg version="1.1" id="Layer_1" xmlns="http://www.w3.org/2000/svg" xmlns:xlink="http://www.w3.org/1999/xlink" x="0px" y="0px"
	 viewBox="0 0 300.02 300.02" style="enable-background:new 0 0 300.02 300.02;" xml:space="preserve">
<g id="XMLID_235_">
	<path 
          fill="white"
          id="XMLID_236_" d="M15,290.01h270c8.284,0,15-6.716,15-15s-6.716-15-15-15H15c-8.284,0-15,6.716-15,15
		S6.716,290.01,15,290.01z"/>
	<path 
          fill="white"
          id="XMLID_237_" d="M15,210.01h270c0.006-0.001,0.013-0.001,0.02,0c8.285,0,15-6.716,15-15c0-3.774-1.394-7.223-3.695-9.859
		L161.746,15.682c-2.845-3.583-7.17-5.672-11.746-5.672c-4.576,0-8.901,2.088-11.746,5.672l-135,170
		c-3.58,4.508-4.265,10.666-1.762,15.85C3.995,206.716,9.244,210.01,15,210.01z"/>
</g>
<g>
</g>
<g>
</g>
<g>
</g>
<g>
</g>
<g>
</g>
<g>
</g>
<g>
</g>
<g>
</g>
<g>
</g>
<g>
</g>
<g>
</g>
<g>
</g>
<g>
</g>
<g>
</g>
<g>
</g>
</svg>
